<svg width="768" height="1000" xmlns="http://www.w3.org/2000/svg"><path d="M298 1000l9.7-15.2c9.6-15.1 29-45.5 48-75.8 19-30.3 37.6-60.7 39.3-91 1.7-30.3-13.7-60.7-40.3-91-26.7-30.3-64.7-60.7-65.7-91-1-30.3 35-60.7 42.8-90.8 7.9-30.2-12.5-60.2-33.3-90.4-20.8-30.1-42.2-60.5-41.7-90.8.5-30.3 22.9-60.7 38.4-91 15.5-30.3 24.1-60.7 33.6-91 9.5-30.3 19.9-60.7 30.7-91 10.8-30.3 22.2-60.7 27.8-75.8L393 0h375v1000z" fill="#e1e1e1"/><path d="M388 1000l-12.7-15.2c-12.6-15.1-38-45.5-26.3-75.8 11.7-30.3 60.3-60.7 64-91 3.7-30.3-37.7-60.7-55-91-17.3-30.3-10.7-60.7.7-91 11.3-30.3 27.3-60.7 38.1-90.8 10.9-30.2 16.5-60.2.4-90.4-16.2-30.1-54.2-60.5-61.5-90.8-7.4-30.3 16-60.7 17-91 1-30.3-20.4-60.7-27-91-6.7-30.3 1.3-60.7.5-91-.9-30.3-10.5-60.7-15.4-75.8L306 0h462v1000z" fill="#bdbdc1"/><path d="M448 1000l-11.3-15.2c-11.4-15.1-34-45.5-30.9-75.8 3.2-30.3 32.2-60.7 56.5-91 24.4-30.3 44-60.7 31-91-13-30.3-58.6-60.7-68.8-91-10.2-30.3 15.2-60.7 19.3-90.8C448 515 431 485 425.3 454.8c-5.6-30.1 0-60.5-6.1-90.8-6.2-30.3-24.2-60.7-32.2-91-8-30.3-6-60.7 18.7-91 24.6-30.3 72-60.7 85.1-91 13.2-30.3-7.8-60.7-18.3-75.8L462 0h306v1000z" fill="#9a9aa2"/><path d="M467 1000l.8-15.2c.9-15.1 2.5-45.5 9.2-75.8 6.7-30.3 18.3-60.7 20.3-91 2-30.3-5.6-60.7-15.6-91-10-30.3-22.4-60.7-23.7-91-1.3-30.3 8.3-60.7 16.7-90.8 8.3-30.2 15.3-60.2 14-90.4-1.4-30.1-11-60.5-8.4-90.8 2.7-30.3 17.7-60.7 27.5-91 9.9-30.3 14.5-60.7 14.7-91 .2-30.3-4.2-60.7-1.7-91 2.5-30.3 11.9-60.7 16.5-75.8L542 0h226v1000z" fill="#787984"/><path d="M532 1000l15.5-15.2c15.5-15.1 46.5-45.5 54.7-75.8 8.1-30.3-6.5-60.7-5.5-91 1-30.3 17.6-60.7 26.3-91 8.7-30.3 9.3-60.7-6.5-91-15.8-30.3-48.2-60.7-67.8-90.8C529 515 522 485 523.2 454.8c1.1-30.1 10.5-60.5 20.1-90.8 9.7-30.3 19.7-60.7 32.5-91 12.9-30.3 28.5-60.7 31.5-91 3-30.3-6.6-60.7-23-91C568 60.7 545 30.3 533.5 15.2L522 0h246v1000z" fill="#585967"/><path d="M658 1000l-4.5-15.2c-4.5-15.1-13.5-45.5-16-75.8-2.5-30.3 1.5-60.7 4.7-91 3.1-30.3 5.5-60.7 3.6-91-1.8-30.3-7.8-60.7-10.6-91-2.9-30.3-2.5-60.7-4.2-90.8-1.7-30.2-5.3-60.2-4.7-90.4.7-30.1 5.7-60.5 3.5-90.8-2.1-30.3-11.5-60.7-3.5-91 8-30.3 33.4-60.7 36.9-91 3.5-30.3-14.9-60.7-17.9-91-3-30.3 9.4-60.7 15.5-75.8L667 0h101v1000z" fill="#3a3c4b"/><path d="M680 1000l4.7-15.2c4.6-15.1 14-45.5 23.3-75.8 9.3-30.3 18.7-60.7 17.5-91-1.2-30.3-12.8-60.7-26.3-91-13.5-30.3-28.9-60.7-27.9-91 1-30.3 18.4-60.7 22.2-90.8 3.8-30.2-5.8-60.2-14-90.4-8.2-30.1-14.8-60.5-7.5-90.8 7.3-30.3 28.7-60.7 30.7-91 2-30.3-15.4-60.7-21.2-91-5.8-30.3-.2-60.7 7.3-91 7.5-30.3 16.9-60.7 21.5-75.8L715 0h53v1000z" fill="#1d2031"/></svg>